<svg xmlns="http://www.w3.org/2000/svg" style="display:none">
  <!-- Check circle -->
  <symbol id="icon-ch" viewBox="0 0 16 16" fill="none" stroke="currentColor" stroke-width="1.5" stroke-linecap="round" stroke-linejoin="round">
    <path d="M8 15C6.14348 15 4.36301 14.2625 3.05025 12.9497C1.7375 11.637 1 9.85652 1 8C1 6.14348 1.7375 4.36301 3.05025 3.05025C4.36301 1.7375 6.14348 1 8 1C9.85652 1 11.637 1.7375 12.9497 3.05025C14.2625 4.36301 15 6.14348 15 8C15 9.85652 14.2625 11.637 12.9497 12.9497C11.637 14.2625 9.85652 15 8 15ZM8 16C10.1217 16 12.1566 15.1571 13.6569 13.6569C15.1571 12.1566 16 10.1217 16 8C16 5.87827 15.1571 3.84344 13.6569 2.34315C12.1566 0.842855 10.1217 0 8 0C5.87827 0 3.84344 0.842855 2.34315 2.34315C0.842855 3.84344 0 5.87827 0 8C0 10.1217 0.842855 12.1566 2.34315 13.6569C3.84344 15.1571 5.87827 16 8 16Z" />
    <path d="M10.97 4.97001L10.95 4.99201L7.477 9.41701L5.384 7.32301C5.24182 7.19053 5.05378 7.1184 4.85948 7.12183C4.66518 7.12526 4.47979 7.20397 4.34238 7.34138C4.20496 7.4788 4.12625 7.66418 4.12282 7.85848C4.1194 8.05278 4.19152 8.24083 4.324 8.38301L6.97 11.03C7.04128 11.1012 7.12616 11.1572 7.21958 11.1949C7.313 11.2325 7.41305 11.2509 7.51374 11.2491C7.61444 11.2472 7.71373 11.2251 7.8057 11.184C7.89766 11.1429 7.9804 11.0838 8.049 11.01L12.041 6.02001C12.1769 5.87734 12.2512 5.6869 12.2479 5.48987C12.2445 5.29285 12.1638 5.10505 12.0231 4.9671C11.8823 4.82915 11.693 4.75211 11.4959 4.75266C11.2989 4.7532 11.1099 4.83128 10.97 4.97001Z" />
  </symbol>

  <!-- Settings/gear -->
  <symbol id="icon-gear" viewBox="0 0 16 16" fill="none" stroke="currentColor" stroke-width="1.5" stroke-linecap="round" stroke-linejoin="round">
    <path d="M8 4.754C7.57373 4.754 7.15163 4.83796 6.75781 5.00108C6.36399 5.16421 6.00615 5.40331 5.70473 5.70473C5.40331 6.00615 5.16421 6.36398 5.00109 6.75781C4.83796 7.15163 4.754 7.57373 4.754 8C4.754 8.42627 4.83796 8.84837 5.00109 9.24219C5.16421 9.63601 5.40331 9.99385 5.70473 10.2953C6.00615 10.5967 6.36399 10.8358 6.75781 10.9989C7.15163 11.162 7.57373 11.246 8 11.246C8.86089 11.246 9.68653 10.904 10.2953 10.2953C10.904 9.68652 11.246 8.86089 11.246 8C11.246 7.1391 10.904 6.31347 10.2953 5.70473C9.68653 5.09599 8.86089 4.754 8 4.754Z"/>
    <path d="M9.796 1.34299C9.269 -0.447012 6.731 -0.447012 6.204 1.34299L6.11 1.66199C6.0732 1.78694 6.0089 1.90207 5.92182 1.99895C5.83474 2.09582 5.72708 2.17198 5.60674 2.22184C5.4864 2.2717 5.35643 2.294 5.22635 2.28711..."/>
  </symbol>

  <!-- Book -->
  <symbol id="icon-book" viewBox="0 0 16 16">
    <path d="M3 2.5C3 2.36739 3.05268 2.24021 3.14645 2.14645C3.24021 2.05268 3.36739 2 3.5 2H8.5C8.63261 2 8.75979 2.05268 8.85355 2.14645C8.94732 2.24021 9 2.36739 9 2.5V7.5C9 7.63261 8.94732 7.75979 8.85355 7.85355C8.75979 7.94732 8.63261 8 8.5 8H3.5..." fill="#101828"/>
  </symbol>

  <!-- Car -->
  <symbol id="icon-car" viewBox="0 0 16 16">
    <path d="M4 9C4 9.26522 3.89464 9.51957 3.70711 9.70711C3.51957 9.89464 3.26522 10 3 10C2.73478 10 2.48043 9.89464 2.29289 9.70711..." fill="#101828"/>
  </symbol>

  <!-- Calendar -->
  <symbol id="icon-calendar" viewBox="0 0 16 16">
    <path d="M3.5 0C3.63261 0 3.75979 0.0526784 3.85355 0.146447..." fill="#101828"/>
  </symbol>

  <!-- Location -->
  <symbol id="icon-location" viewBox="0 0 16 16" fill="none" stroke="currentColor" stroke-width="1.5" stroke-linecap="round" stroke-linejoin="round" >
    <path d="M11.5306 8.38125C11.0394 9.37687 10.3738 10.3688 9.69313 11.2594C9.04677 12.0984 8.35642 12.9027 7.625 13.6687..." />
  </symbol>
</svg>
